<svg width="32" height="32" viewBox="0 0 32 32" fill="none" xmlns="http://www.w3.org/2000/svg">
  <!-- Background circle -->
  <circle cx="16" cy="16" r="15" fill="url(#gradient)" stroke="url(#strokeGradient)" stroke-width="1.5"/>
  
  <!-- Leaf shape -->
  <path d="M16 6C13 6 10 9 10 12C10 15 13 18 16 22C19 18 22 15 22 12C22 9 19 6 16 6Z" fill="url(#leafGradient)"/>
  
  <!-- AI circuit pattern -->
  <path d="M11 11L15 11M17 11L21 11M11 14L15 14M17 14L21 14M11 17L15 17M17 17L21 17" stroke="currentColor" stroke-width="1" stroke-linecap="round" opacity="0.6"/>
  
  <!-- Central dot representing AI -->
  <circle cx="16" cy="16" r="1.5" fill="currentColor"/>
  
  <!-- Gradients -->
  <defs>
    <linearGradient id="gradient" x1="0%" y1="0%" x2="100%" y2="100%">
      <stop offset="0%" style="stop-color:#22c55e;stop-opacity:1" />
      <stop offset="100%" style="stop-color:#16a34a;stop-opacity:1" />
    </linearGradient>
    
    <linearGradient id="strokeGradient" x1="0%" y1="0%" x2="100%" y2="100%">
      <stop offset="0%" style="stop-color:#22c55e;stop-opacity:0.3" />
      <stop offset="100%" style="stop-color:#16a34a;stop-opacity:0.3" />
    </linearGradient>
    
    <linearGradient id="leafGradient" x1="0%" y1="0%" x2="100%" y2="100%">
      <stop offset="0%" style="stop-color:#ffffff;stop-opacity:0.9" />
      <stop offset="100%" style="stop-color:#f0fdf4;stop-opacity:0.9" />
    </linearGradient>
  </defs>
</svg> 