<svg width="40" height="40" viewBox="0 0 40 40" fill="none" xmlns="http://www.w3.org/2000/svg">
  <!-- Background circle -->
  <circle cx="20" cy="20" r="18" fill="url(#gradient)" stroke="url(#strokeGradient)" stroke-width="2"/>
  
  <!-- Leaf shape -->
  <path d="M20 8C16 8 12 12 12 16C12 20 16 24 20 28C24 24 28 20 28 16C28 12 24 8 20 8Z" fill="url(#leafGradient)"/>
  
  <!-- AI circuit pattern -->
  <path d="M14 14L18 14M22 14L26 14M14 18L18 18M22 18L26 18M14 22L18 22M22 22L26 22" stroke="currentColor" stroke-width="1.5" stroke-linecap="round" opacity="0.6"/>
  
  <!-- Central dot representing AI -->
  <circle cx="20" cy="20" r="2" fill="currentColor"/>
  
  <!-- Gradients -->
  <defs>
    <linearGradient id="gradient" x1="0%" y1="0%" x2="100%" y2="100%">
      <stop offset="0%" style="stop-color:#22c55e;stop-opacity:1" />
      <stop offset="100%" style="stop-color:#16a34a;stop-opacity:1" />
    </linearGradient>
    
    <linearGradient id="strokeGradient" x1="0%" y1="0%" x2="100%" y2="100%">
      <stop offset="0%" style="stop-color:#22c55e;stop-opacity:0.3" />
      <stop offset="100%" style="stop-color:#16a34a;stop-opacity:0.3" />
    </linearGradient>
    
    <linearGradient id="leafGradient" x1="0%" y1="0%" x2="100%" y2="100%">
      <stop offset="0%" style="stop-color:#ffffff;stop-opacity:0.9" />
      <stop offset="100%" style="stop-color:#f0fdf4;stop-opacity:0.9" />
    </linearGradient>
  </defs>
</svg> 